<svg width="1000" height="994" viewBox="0 0 1000 994" fill="none" xmlns="http://www.w3.org/2000/svg">
<path d="M0 200.951C0 90.4943 89.5431 0.951294 200 0.951294H800C910.457 0.951294 1000 90.4943 1000 200.951V794C1000 904.457 910.457 994 800 994H200C89.543 994 0 904.457 0 794V200.951Z" fill="black"/>
<path d="M287.109 303.809C287.109 248.144 307.129 200.293 347.168 160.254C387.533 120.215 435.547 100.195 491.211 100.195H715.82V343.848H600.098C588.053 343.848 578.125 347.754 570.312 355.566C562.826 363.053 559.082 372.493 559.082 383.887C559.082 395.931 562.826 405.859 570.312 413.672C578.125 421.159 588.053 424.902 600.098 424.902H715.82V670.019H574.219V900H287.109V303.809Z" fill="#16DB65"/>
</svg>
